<svg version="1.0" preserveAspectRatio="xMidYMid meet" viewBox="15 126.74999695800001 296.25 83.999997984" zoomAndPan="magnify" xmlns:xlink="http://www.w3.org/1999/xlink" xmlns="http://www.w3.org/2000/svg" style="max-height: 500px" width="296.25" height="83.999997984"><defs><g/><clipPath id="eb8455d92a"><path clip-rule="nonzero" d="M 57.398438 130.722656 L 212.648438 130.722656 L 212.648438 207.222656 L 57.398438 207.222656 Z M 57.398438 130.722656"/></clipPath><clipPath id="936b1a8e49"><path clip-rule="nonzero" d="M 27 150.597656 L 70 150.597656 L 70 187.347656 L 27 187.347656 Z M 27 150.597656"/></clipPath><clipPath id="2a58a5464f"><path clip-rule="nonzero" d="M 26.632812 155 L 70.132812 155 L 70.132812 183 L 26.632812 183 Z M 26.632812 155"/></clipPath></defs><rect fill-opacity="1" height="449.999989" y="-37.499999" fill="#ffffff" width="450" x="-37.5"/><rect fill-opacity="1" height="449.999989" y="-37.499999" fill="#ffffff" width="450" x="-37.5"/><g clip-path="url(#eb8455d92a)"><path fill-rule="nonzero" fill-opacity="1" d="M 75.628906 174.851562 L 75.882812 173.816406 L 78.351562 163.5625 L 82.816406 190.699219 L 84.152344 198.8125 L 85.128906 190.664062 L 90.558594 145.03125 L 98.960938 202.828125 L 99.601562 207.222656 L 100.339844 202.84375 L 105.625 171.367188 L 112.089844 171.339844 L 112.480469 171.339844 L 112.601562 170.964844 L 115.453125 162.023438 L 117.816406 174.015625 L 117.894531 174.378906 L 118.25 174.371094 L 124.296875 174.355469 L 124.574219 174.355469 L 124.679688 174.101562 L 129.230469 163.363281 L 130.925781 170.871094 L 130.976562 171.128906 L 131.246094 171.128906 L 134.84375 171.113281 L 136.121094 174.164062 L 136.199219 174.34375 L 136.398438 174.34375 L 212.585938 174.050781 L 136.601562 173.746094 L 135.347656 170.679688 L 135.269531 170.488281 L 135.054688 170.488281 L 131.515625 170.46875 L 129.699219 162.09375 L 129.457031 160.980469 L 129.007812 162.023438 L 124.027344 173.519531 L 118.613281 173.496094 L 116.050781 159.949219 L 115.6875 158.0625 L 115.085938 159.886719 L 111.699219 170.253906 L 105.144531 170.226562 L 104.667969 170.226562 L 104.582031 170.703125 L 99.734375 198.230469 L 91.410156 137.617188 L 90.425781 130.464844 L 89.515625 137.636719 L 83.851562 182.21875 L 79.871094 156.8125 L 78.878906 150.476562 L 77.324219 156.707031 L 73.492188 172.121094 L 57.53125 172.050781 L 57.53125 174.917969 L 74.550781 174.859375 Z M 75.628906 174.851562" fill="#008080"/></g><g fill-opacity="1" fill="#000000"><g transform="translate(86.76862, 185.080268)"><g><path d="M 26.203125 -3.703125 C 23.347656 -1.328125 20.085938 -0.140625 16.421875 -0.140625 C 12.265625 -0.140625 8.710938 -1.609375 5.765625 -4.546875 C 2.828125 -7.492188 1.359375 -11.046875 1.359375 -15.203125 C 1.359375 -19.378906 2.828125 -22.941406 5.765625 -25.890625 C 8.710938 -28.828125 12.265625 -30.296875 16.421875 -30.296875 C 20.109375 -30.296875 23.367188 -29.097656 26.203125 -26.703125 L 21.6875 -22.234375 C 20.15625 -23.398438 18.398438 -23.984375 16.421875 -23.984375 C 14.015625 -23.984375 11.953125 -23.128906 10.234375 -21.421875 C 8.523438 -19.703125 7.671875 -17.628906 7.671875 -15.203125 C 7.671875 -12.796875 8.523438 -10.734375 10.234375 -9.015625 C 11.953125 -7.304688 14.015625 -6.453125 16.421875 -6.453125 C 18.398438 -6.453125 20.15625 -7.035156 21.6875 -8.203125 Z M 26.203125 -3.703125"/></g></g></g><g fill-opacity="1" fill="#000000"><g transform="translate(115.673713, 185.080268)"><g><path d="M 1.359375 -23.3125 L 7.21875 -23.3125 L 7.21875 -11.59375 C 7.21875 -11.132812 7.289062 -10.625 7.4375 -10.0625 C 7.625 -9.363281 7.894531 -8.726562 8.25 -8.15625 C 9.238281 -6.65625 10.648438 -5.90625 12.484375 -5.90625 C 14.503906 -5.90625 15.960938 -6.671875 16.859375 -8.203125 C 17.191406 -8.742188 17.4375 -9.375 17.59375 -10.09375 C 17.707031 -10.613281 17.765625 -11.128906 17.765625 -11.640625 L 17.765625 -23.3125 L 24.078125 -23.3125 L 24.078125 0 L 17.765625 0 L 17.765625 -2.4375 C 16.296875 -0.8125 14.398438 0 12.078125 0 C 9.109375 0.03125 6.585938 -1.035156 4.515625 -3.203125 C 2.410156 -5.335938 1.359375 -7.984375 1.359375 -11.140625 Z M 1.359375 -23.3125"/></g></g></g><g fill-opacity="1" fill="#000000"><g transform="translate(141.106586, 185.080268)"><g><path d="M 7.671875 -19.75 C 8.179688 -21.195312 9.035156 -22.203125 10.234375 -22.765625 C 11.410156 -23.335938 13.171875 -23.625 15.515625 -23.625 L 15.515625 -17.1875 C 13.222656 -17.1875 11.3125 -16.398438 9.78125 -14.828125 C 8.375 -13.453125 7.671875 -11.9375 7.671875 -10.28125 L 7.671875 0 L 1.359375 0 L 1.359375 -23.21875 L 7.671875 -23.21875 Z M 7.671875 -19.75"/></g></g></g><g fill-opacity="1" fill="#000000"><g transform="translate(157.295237, 185.080268)"><g><path d="M 23.71875 -10.59375 C 23.75 -9.96875 23.75 -9.59375 23.71875 -9.46875 L 6.765625 -9.515625 C 7.003906 -8.828125 7.441406 -8.164062 8.078125 -7.53125 C 9.242188 -6.414062 10.59375 -5.859375 12.125 -5.859375 C 13.75 -5.921875 15.101562 -6.492188 16.1875 -7.578125 L 16.375 -7.75 L 22.234375 -5.90625 C 20.941406 -3.894531 19.585938 -2.453125 18.171875 -1.578125 C 16.578125 -0.554688 14.578125 -0.03125 12.171875 0 C 8.984375 0.03125 6.25 -1.082031 3.96875 -3.34375 C 1.6875 -5.59375 0.53125 -8.328125 0.5 -11.546875 C 0.46875 -14.734375 1.578125 -17.46875 3.828125 -19.75 C 6.085938 -22.03125 8.828125 -23.1875 12.046875 -23.21875 C 15.222656 -23.25 17.957031 -22.140625 20.25 -19.890625 C 22.53125 -17.628906 23.6875 -14.890625 23.71875 -11.671875 Z M 12.078125 -17.3125 C 10.484375 -17.3125 9.132812 -16.753906 8.03125 -15.640625 C 7.457031 -15.015625 7.050781 -14.382812 6.8125 -13.75 L 17.40625 -13.75 C 17.164062 -14.382812 16.742188 -15.03125 16.140625 -15.6875 C 15.003906 -16.769531 13.648438 -17.3125 12.078125 -17.3125 Z M 12.078125 -17.3125"/></g></g></g><g fill-opacity="1" fill="#000000"><g transform="translate(181.510584, 185.080268)"><g><path d="M 20.515625 -29.3125 L 27.546875 -29.3125 L 27.546875 0 L 8.109375 -14.296875 L 8.109375 0 L 1.078125 0 L 1.078125 -29.3125 L 20.515625 -14.34375 Z M 20.515625 -29.3125"/></g></g></g><g fill-opacity="1" fill="#000000"><g transform="translate(210.145109, 185.080268)"><g><path d="M 23.71875 -10.59375 C 23.75 -9.96875 23.75 -9.59375 23.71875 -9.46875 L 6.765625 -9.515625 C 7.003906 -8.828125 7.441406 -8.164062 8.078125 -7.53125 C 9.242188 -6.414062 10.59375 -5.859375 12.125 -5.859375 C 13.75 -5.921875 15.101562 -6.492188 16.1875 -7.578125 L 16.375 -7.75 L 22.234375 -5.90625 C 20.941406 -3.894531 19.585938 -2.453125 18.171875 -1.578125 C 16.578125 -0.554688 14.578125 -0.03125 12.171875 0 C 8.984375 0.03125 6.25 -1.082031 3.96875 -3.34375 C 1.6875 -5.59375 0.53125 -8.328125 0.5 -11.546875 C 0.46875 -14.734375 1.578125 -17.46875 3.828125 -19.75 C 6.085938 -22.03125 8.828125 -23.1875 12.046875 -23.21875 C 15.222656 -23.25 17.957031 -22.140625 20.25 -19.890625 C 22.53125 -17.628906 23.6875 -14.890625 23.71875 -11.671875 Z M 12.078125 -17.3125 C 10.484375 -17.3125 9.132812 -16.753906 8.03125 -15.640625 C 7.457031 -15.015625 7.050781 -14.382812 6.8125 -13.75 L 17.40625 -13.75 C 17.164062 -14.382812 16.742188 -15.03125 16.140625 -15.6875 C 15.003906 -16.769531 13.648438 -17.3125 12.078125 -17.3125 Z M 12.078125 -17.3125"/></g></g></g><g fill-opacity="1" fill="#000000"><g transform="translate(234.360456, 185.080268)"><g><path d="M 10.734375 0 C 9.171875 0 7.800781 -0.238281 6.625 -0.71875 C 5.695312 -1.050781 4.738281 -1.671875 3.75 -2.578125 C 2.03125 -4.160156 1.242188 -6.171875 1.390625 -8.609375 L 1.390625 -9.109375 L 6.453125 -9.015625 L 6.859375 -9.015625 L 6.859375 -8.65625 C 6.890625 -7.90625 7.050781 -7.289062 7.34375 -6.8125 C 7.851562 -5.9375 8.984375 -5.5 10.734375 -5.5 C 12.171875 -5.5 13.207031 -5.664062 13.84375 -6 C 14.175781 -6.144531 14.398438 -6.335938 14.515625 -6.578125 C 14.578125 -6.671875 14.609375 -6.765625 14.609375 -6.859375 L 14.65625 -7.078125 C 14.65625 -7.710938 14.160156 -8.222656 13.171875 -8.609375 C 12.773438 -8.765625 12.320312 -8.882812 11.8125 -8.96875 C 11.425781 -9.0625 10.988281 -9.140625 10.5 -9.203125 C 8.695312 -9.378906 7.195312 -9.738281 6 -10.28125 C 4.789062 -10.757812 3.796875 -11.421875 3.015625 -12.265625 C 1.929688 -13.492188 1.390625 -14.90625 1.390625 -16.5 C 1.390625 -17.5 1.570312 -18.414062 1.9375 -19.25 C 2.207031 -19.914062 2.566406 -20.503906 3.015625 -21.015625 C 4.640625 -22.878906 7.242188 -23.8125 10.828125 -23.8125 C 12.960938 -23.8125 14.765625 -23.390625 16.234375 -22.546875 C 17.378906 -21.910156 18.296875 -21.050781 18.984375 -19.96875 C 19.523438 -19.164062 19.898438 -18.222656 20.109375 -17.140625 C 20.171875 -16.773438 20.21875 -16.425781 20.25 -16.09375 L 20.25 -15.15625 L 14.796875 -15.15625 L 14.796875 -15.828125 C 14.765625 -15.953125 14.75 -16.070312 14.75 -16.1875 C 14.65625 -16.519531 14.535156 -16.789062 14.390625 -17 C 13.722656 -17.90625 12.535156 -18.359375 10.828125 -18.359375 C 8.296875 -18.359375 7.03125 -17.832031 7.03125 -16.78125 C 7.03125 -16.238281 7.332031 -15.800781 7.9375 -15.46875 C 8.570312 -15.070312 9.640625 -14.785156 11.140625 -14.609375 C 14.597656 -14.242188 17.109375 -13.144531 18.671875 -11.3125 C 19.722656 -10.082031 20.25 -8.671875 20.25 -7.078125 L 20.25 -6.765625 L 20.203125 -6.359375 C 20.203125 -5.960938 20.15625 -5.601562 20.0625 -5.28125 C 19.820312 -4.3125 19.375 -3.453125 18.71875 -2.703125 C 17.96875 -1.804688 16.914062 -1.128906 15.5625 -0.671875 C 14.207031 -0.222656 12.597656 0 10.734375 0 Z M 10.734375 0"/></g></g></g><path stroke-miterlimit="4" stroke-opacity="1" stroke-width="5" stroke="#008080" d="M 0.00179769 2.500126 L 110.803888 2.500126" stroke-linejoin="miter" fill="none" transform="matrix(0.75, -0.000000000000000372, 0.000000000000000372, 0.75, 212.654902, 156.167875)" stroke-linecap="butt"/><path stroke-miterlimit="4" stroke-opacity="1" stroke-width="9" stroke="#008080" d="M -0.000069437 4.499071 L 49.203059 4.499071" stroke-linejoin="miter" fill="none" transform="matrix(0.000000001309, 0.75, -0.75, 0.000000001309, 267.296178, 158.043021)" stroke-linecap="butt"/><g clip-path="url(#936b1a8e49)"><path fill-rule="nonzero" fill-opacity="1" d="M 57.855469 150.601562 C 53.964844 150.601562 50.53125 152.546875 48.464844 155.511719 C 46.398438 152.546875 42.964844 150.601562 39.074219 150.601562 C 32.761719 150.601562 27.640625 155.722656 27.640625 162.039062 C 27.640625 176.429688 48.464844 187.492188 48.464844 187.492188 C 48.464844 187.492188 69.289062 176.429688 69.289062 162.039062 C 69.289062 155.722656 64.171875 150.601562 57.855469 150.601562" fill="#008080"/></g><g clip-path="url(#2a58a5464f)"><path fill-rule="nonzero" fill-opacity="1" d="M 47.464844 182.628906 C 47.066406 182.628906 46.726562 182.339844 46.660156 181.949219 L 44.28125 167.722656 L 43.085938 170.960938 C 42.96875 171.28125 42.664062 171.496094 42.324219 171.496094 L 27.449219 171.496094 C 27 171.496094 26.632812 171.128906 26.632812 170.679688 C 26.632812 170.230469 27 169.867188 27.449219 169.867188 L 41.757812 169.867188 L 43.8125 164.277344 C 43.941406 163.933594 44.289062 163.710938 44.652344 163.75 C 45.019531 163.785156 45.316406 164.0625 45.378906 164.425781 L 47.421875 176.625 L 50.554688 155.765625 C 50.617188 155.367188 50.957031 155.074219 51.359375 155.074219 C 51.363281 155.074219 51.367188 155.074219 51.371094 155.074219 C 51.78125 155.078125 52.121094 155.386719 52.167969 155.792969 L 54.015625 171.410156 L 54.359375 170.414062 C 54.472656 170.085938 54.78125 169.867188 55.128906 169.867188 L 69.484375 169.867188 C 69.933594 169.867188 70.296875 170.230469 70.296875 170.679688 C 70.296875 171.128906 69.933594 171.496094 69.484375 171.496094 L 55.707031 171.496094 L 54.390625 175.289062 C 54.265625 175.648438 53.914062 175.875 53.535156 175.832031 C 53.15625 175.792969 52.859375 175.496094 52.8125 175.121094 L 51.265625 162.003906 L 48.269531 181.933594 C 48.207031 182.332031 47.871094 182.625 47.46875 182.628906 C 47.46875 182.628906 47.464844 182.628906 47.464844 182.628906" fill="#ffffff"/></g></svg>